<mxfile host="app.diagrams.net" modified="2024-02-15T01:28:01.497Z" agent="Mozilla/5.0 (Windows NT 10.0; Win64; x64) AppleWebKit/537.36 (KHTML, like Gecko) Chrome/121.0.0.0 Safari/537.36" etag="uLMmfi90dKwzKN3KVGrr" version="23.1.3" type="github">
  <diagram id="C5RBs43oDa-KdzZeNtuy" name="Page-1">
    <mxGraphModel dx="2442" dy="1518" grid="1" gridSize="10" guides="1" tooltips="1" connect="1" arrows="1" fold="1" page="1" pageScale="1" pageWidth="827" pageHeight="1169" math="0" shadow="0">
      <root>
        <mxCell id="WIyWlLk6GJQsqaUBKTNV-0" />
        <mxCell id="WIyWlLk6GJQsqaUBKTNV-1" parent="WIyWlLk6GJQsqaUBKTNV-0" />
        <mxCell id="eWNiFB_0ZMw8dlfla2pj-142" value="Re1 (Login)" style="group" vertex="1" connectable="0" parent="WIyWlLk6GJQsqaUBKTNV-1">
          <mxGeometry x="160" y="80" width="400" height="270" as="geometry" />
        </mxCell>
        <mxCell id="WIyWlLk6GJQsqaUBKTNV-3" value="Login" style="rounded=1;whiteSpace=wrap;html=1;fontSize=12;glass=0;strokeWidth=1;shadow=0;" parent="eWNiFB_0ZMw8dlfla2pj-142" vertex="1">
          <mxGeometry width="120" height="40" as="geometry" />
        </mxCell>
        <mxCell id="WIyWlLk6GJQsqaUBKTNV-6" value="Is logged&lt;br&gt;in?" style="rhombus;whiteSpace=wrap;html=1;shadow=0;fontFamily=Helvetica;fontSize=12;align=center;strokeWidth=1;spacing=6;spacingTop=-4;" parent="eWNiFB_0ZMw8dlfla2pj-142" vertex="1">
          <mxGeometry x="10" y="90" width="100" height="80" as="geometry" />
        </mxCell>
        <mxCell id="WIyWlLk6GJQsqaUBKTNV-2" value="" style="rounded=0;html=1;jettySize=auto;orthogonalLoop=1;fontSize=11;endArrow=block;endFill=0;endSize=8;strokeWidth=1;shadow=0;labelBackgroundColor=none;edgeStyle=orthogonalEdgeStyle;" parent="eWNiFB_0ZMw8dlfla2pj-142" source="WIyWlLk6GJQsqaUBKTNV-3" target="WIyWlLk6GJQsqaUBKTNV-6" edge="1">
          <mxGeometry relative="1" as="geometry" />
        </mxCell>
        <mxCell id="eWNiFB_0ZMw8dlfla2pj-2" value="" style="edgeStyle=orthogonalEdgeStyle;rounded=0;orthogonalLoop=1;jettySize=auto;html=1;" edge="1" parent="eWNiFB_0ZMw8dlfla2pj-142" target="eWNiFB_0ZMw8dlfla2pj-1">
          <mxGeometry relative="1" as="geometry">
            <mxPoint x="260" y="130" as="sourcePoint" />
          </mxGeometry>
        </mxCell>
        <mxCell id="WIyWlLk6GJQsqaUBKTNV-7" value="Fill login form" style="rounded=1;whiteSpace=wrap;html=1;fontSize=12;glass=0;strokeWidth=1;shadow=0;" parent="eWNiFB_0ZMw8dlfla2pj-142" vertex="1">
          <mxGeometry x="160" y="110" width="120" height="40" as="geometry" />
        </mxCell>
        <mxCell id="WIyWlLk6GJQsqaUBKTNV-5" value="No" style="edgeStyle=orthogonalEdgeStyle;rounded=0;html=1;jettySize=auto;orthogonalLoop=1;fontSize=11;endArrow=block;endFill=0;endSize=8;strokeWidth=1;shadow=0;labelBackgroundColor=none;" parent="eWNiFB_0ZMw8dlfla2pj-142" source="WIyWlLk6GJQsqaUBKTNV-6" target="WIyWlLk6GJQsqaUBKTNV-7" edge="1">
          <mxGeometry y="10" relative="1" as="geometry">
            <mxPoint as="offset" />
          </mxGeometry>
        </mxCell>
        <mxCell id="eWNiFB_0ZMw8dlfla2pj-0" value="Navigate to Home page" style="rounded=1;whiteSpace=wrap;html=1;fontSize=12;glass=0;strokeWidth=1;shadow=0;" vertex="1" parent="eWNiFB_0ZMw8dlfla2pj-142">
          <mxGeometry y="230" width="120" height="40" as="geometry" />
        </mxCell>
        <mxCell id="WIyWlLk6GJQsqaUBKTNV-4" value="Yes" style="rounded=0;html=1;jettySize=auto;orthogonalLoop=1;fontSize=11;endArrow=block;endFill=0;endSize=8;strokeWidth=1;shadow=0;labelBackgroundColor=none;edgeStyle=orthogonalEdgeStyle;entryX=0.5;entryY=0;entryDx=0;entryDy=0;" parent="eWNiFB_0ZMw8dlfla2pj-142" source="WIyWlLk6GJQsqaUBKTNV-6" target="eWNiFB_0ZMw8dlfla2pj-0" edge="1">
          <mxGeometry y="20" relative="1" as="geometry">
            <mxPoint as="offset" />
            <mxPoint x="60" y="210" as="targetPoint" />
          </mxGeometry>
        </mxCell>
        <mxCell id="eWNiFB_0ZMw8dlfla2pj-3" style="edgeStyle=orthogonalEdgeStyle;rounded=0;orthogonalLoop=1;jettySize=auto;html=1;entryX=1;entryY=0.5;entryDx=0;entryDy=0;" edge="1" parent="eWNiFB_0ZMw8dlfla2pj-142" source="eWNiFB_0ZMw8dlfla2pj-1" target="eWNiFB_0ZMw8dlfla2pj-0">
          <mxGeometry relative="1" as="geometry">
            <Array as="points">
              <mxPoint x="360" y="250" />
            </Array>
          </mxGeometry>
        </mxCell>
        <mxCell id="eWNiFB_0ZMw8dlfla2pj-4" value="Yes" style="edgeLabel;html=1;align=center;verticalAlign=middle;resizable=0;points=[];" vertex="1" connectable="0" parent="eWNiFB_0ZMw8dlfla2pj-3">
          <mxGeometry x="-0.2825" y="1" relative="1" as="geometry">
            <mxPoint as="offset" />
          </mxGeometry>
        </mxCell>
        <mxCell id="eWNiFB_0ZMw8dlfla2pj-5" style="edgeStyle=orthogonalEdgeStyle;rounded=0;orthogonalLoop=1;jettySize=auto;html=1;entryX=0.5;entryY=0;entryDx=0;entryDy=0;" edge="1" parent="eWNiFB_0ZMw8dlfla2pj-142" source="eWNiFB_0ZMw8dlfla2pj-1">
          <mxGeometry relative="1" as="geometry">
            <mxPoint x="200" y="110" as="targetPoint" />
            <Array as="points">
              <mxPoint x="360" y="60" />
              <mxPoint x="200" y="60" />
            </Array>
          </mxGeometry>
        </mxCell>
        <mxCell id="eWNiFB_0ZMw8dlfla2pj-6" value="No" style="edgeLabel;html=1;align=center;verticalAlign=middle;resizable=0;points=[];" vertex="1" connectable="0" parent="eWNiFB_0ZMw8dlfla2pj-5">
          <mxGeometry x="-0.0405" y="-1" relative="1" as="geometry">
            <mxPoint as="offset" />
          </mxGeometry>
        </mxCell>
        <mxCell id="eWNiFB_0ZMw8dlfla2pj-1" value="Credentials&lt;br&gt;correct ?" style="rhombus;whiteSpace=wrap;html=1;rounded=1;glass=0;strokeWidth=1;shadow=0;" vertex="1" parent="eWNiFB_0ZMw8dlfla2pj-142">
          <mxGeometry x="320" y="90" width="80" height="80" as="geometry" />
        </mxCell>
        <mxCell id="eWNiFB_0ZMw8dlfla2pj-143" value="Req1(Signup)" style="group" vertex="1" connectable="0" parent="WIyWlLk6GJQsqaUBKTNV-1">
          <mxGeometry x="160" y="420" width="400" height="560" as="geometry" />
        </mxCell>
        <mxCell id="eWNiFB_0ZMw8dlfla2pj-8" value="Signup" style="rounded=1;whiteSpace=wrap;html=1;fontSize=12;glass=0;strokeWidth=1;shadow=0;" vertex="1" parent="eWNiFB_0ZMw8dlfla2pj-143">
          <mxGeometry width="120" height="40" as="geometry" />
        </mxCell>
        <mxCell id="eWNiFB_0ZMw8dlfla2pj-11" value="Is logged&lt;br&gt;in?" style="rhombus;whiteSpace=wrap;html=1;shadow=0;fontFamily=Helvetica;fontSize=12;align=center;strokeWidth=1;spacing=6;spacingTop=-4;" vertex="1" parent="eWNiFB_0ZMw8dlfla2pj-143">
          <mxGeometry x="10" y="90" width="100" height="80" as="geometry" />
        </mxCell>
        <mxCell id="eWNiFB_0ZMw8dlfla2pj-7" value="" style="rounded=0;html=1;jettySize=auto;orthogonalLoop=1;fontSize=11;endArrow=block;endFill=0;endSize=8;strokeWidth=1;shadow=0;labelBackgroundColor=none;edgeStyle=orthogonalEdgeStyle;" edge="1" parent="eWNiFB_0ZMw8dlfla2pj-143" source="eWNiFB_0ZMw8dlfla2pj-8" target="eWNiFB_0ZMw8dlfla2pj-11">
          <mxGeometry relative="1" as="geometry" />
        </mxCell>
        <mxCell id="eWNiFB_0ZMw8dlfla2pj-12" value="" style="edgeStyle=orthogonalEdgeStyle;rounded=0;orthogonalLoop=1;jettySize=auto;html=1;" edge="1" parent="eWNiFB_0ZMw8dlfla2pj-143" target="eWNiFB_0ZMw8dlfla2pj-19">
          <mxGeometry relative="1" as="geometry">
            <mxPoint x="260" y="130" as="sourcePoint" />
          </mxGeometry>
        </mxCell>
        <mxCell id="eWNiFB_0ZMw8dlfla2pj-13" value="Fill signup form" style="rounded=1;whiteSpace=wrap;html=1;fontSize=12;glass=0;strokeWidth=1;shadow=0;" vertex="1" parent="eWNiFB_0ZMw8dlfla2pj-143">
          <mxGeometry x="160" y="110" width="120" height="40" as="geometry" />
        </mxCell>
        <mxCell id="eWNiFB_0ZMw8dlfla2pj-10" value="No" style="edgeStyle=orthogonalEdgeStyle;rounded=0;html=1;jettySize=auto;orthogonalLoop=1;fontSize=11;endArrow=block;endFill=0;endSize=8;strokeWidth=1;shadow=0;labelBackgroundColor=none;" edge="1" parent="eWNiFB_0ZMw8dlfla2pj-143" source="eWNiFB_0ZMw8dlfla2pj-11" target="eWNiFB_0ZMw8dlfla2pj-13">
          <mxGeometry y="10" relative="1" as="geometry">
            <mxPoint as="offset" />
          </mxGeometry>
        </mxCell>
        <mxCell id="eWNiFB_0ZMw8dlfla2pj-14" value="Navigate to Home page" style="rounded=1;whiteSpace=wrap;html=1;fontSize=12;glass=0;strokeWidth=1;shadow=0;" vertex="1" parent="eWNiFB_0ZMw8dlfla2pj-143">
          <mxGeometry y="230" width="120" height="40" as="geometry" />
        </mxCell>
        <mxCell id="eWNiFB_0ZMw8dlfla2pj-9" value="Yes" style="rounded=0;html=1;jettySize=auto;orthogonalLoop=1;fontSize=11;endArrow=block;endFill=0;endSize=8;strokeWidth=1;shadow=0;labelBackgroundColor=none;edgeStyle=orthogonalEdgeStyle;entryX=0.5;entryY=0;entryDx=0;entryDy=0;" edge="1" parent="eWNiFB_0ZMw8dlfla2pj-143" source="eWNiFB_0ZMw8dlfla2pj-11" target="eWNiFB_0ZMw8dlfla2pj-14">
          <mxGeometry y="20" relative="1" as="geometry">
            <mxPoint as="offset" />
            <mxPoint x="60" y="210" as="targetPoint" />
          </mxGeometry>
        </mxCell>
        <mxCell id="eWNiFB_0ZMw8dlfla2pj-17" style="edgeStyle=orthogonalEdgeStyle;rounded=0;orthogonalLoop=1;jettySize=auto;html=1;entryX=0.5;entryY=0;entryDx=0;entryDy=0;" edge="1" parent="eWNiFB_0ZMw8dlfla2pj-143" source="eWNiFB_0ZMw8dlfla2pj-19" target="eWNiFB_0ZMw8dlfla2pj-13">
          <mxGeometry relative="1" as="geometry">
            <mxPoint x="200" y="110" as="targetPoint" />
            <Array as="points">
              <mxPoint x="360" y="60" />
              <mxPoint x="220" y="60" />
            </Array>
          </mxGeometry>
        </mxCell>
        <mxCell id="eWNiFB_0ZMw8dlfla2pj-18" value="No" style="edgeLabel;html=1;align=center;verticalAlign=middle;resizable=0;points=[];" vertex="1" connectable="0" parent="eWNiFB_0ZMw8dlfla2pj-17">
          <mxGeometry x="-0.0405" y="-1" relative="1" as="geometry">
            <mxPoint as="offset" />
          </mxGeometry>
        </mxCell>
        <mxCell id="eWNiFB_0ZMw8dlfla2pj-19" value="Credentials&lt;br&gt;valid ?" style="rhombus;whiteSpace=wrap;html=1;rounded=1;glass=0;strokeWidth=1;shadow=0;" vertex="1" parent="eWNiFB_0ZMw8dlfla2pj-143">
          <mxGeometry x="320" y="90" width="80" height="80" as="geometry" />
        </mxCell>
        <mxCell id="eWNiFB_0ZMw8dlfla2pj-24" style="edgeStyle=orthogonalEdgeStyle;rounded=0;orthogonalLoop=1;jettySize=auto;html=1;entryX=0.5;entryY=1;entryDx=0;entryDy=0;" edge="1" parent="eWNiFB_0ZMw8dlfla2pj-143" source="eWNiFB_0ZMw8dlfla2pj-20" target="eWNiFB_0ZMw8dlfla2pj-14">
          <mxGeometry relative="1" as="geometry" />
        </mxCell>
        <mxCell id="eWNiFB_0ZMw8dlfla2pj-25" value="No" style="edgeLabel;html=1;align=center;verticalAlign=middle;resizable=0;points=[];" vertex="1" connectable="0" parent="eWNiFB_0ZMw8dlfla2pj-24">
          <mxGeometry x="-0.4476" y="-4" relative="1" as="geometry">
            <mxPoint as="offset" />
          </mxGeometry>
        </mxCell>
        <mxCell id="eWNiFB_0ZMw8dlfla2pj-20" value="Is user a student, faculty or non-faculty staff at the university ?" style="rhombus;whiteSpace=wrap;html=1;rounded=1;glass=0;strokeWidth=1;shadow=0;" vertex="1" parent="eWNiFB_0ZMw8dlfla2pj-143">
          <mxGeometry x="160" y="290" width="150" height="150" as="geometry" />
        </mxCell>
        <mxCell id="eWNiFB_0ZMw8dlfla2pj-15" style="edgeStyle=orthogonalEdgeStyle;rounded=0;orthogonalLoop=1;jettySize=auto;html=1;entryX=0.5;entryY=0;entryDx=0;entryDy=0;" edge="1" parent="eWNiFB_0ZMw8dlfla2pj-143" source="eWNiFB_0ZMw8dlfla2pj-19" target="eWNiFB_0ZMw8dlfla2pj-20">
          <mxGeometry relative="1" as="geometry">
            <Array as="points">
              <mxPoint x="360" y="250" />
              <mxPoint x="235" y="250" />
            </Array>
          </mxGeometry>
        </mxCell>
        <mxCell id="eWNiFB_0ZMw8dlfla2pj-16" value="Yes" style="edgeLabel;html=1;align=center;verticalAlign=middle;resizable=0;points=[];" vertex="1" connectable="0" parent="eWNiFB_0ZMw8dlfla2pj-15">
          <mxGeometry x="-0.2825" y="1" relative="1" as="geometry">
            <mxPoint as="offset" />
          </mxGeometry>
        </mxCell>
        <mxCell id="eWNiFB_0ZMw8dlfla2pj-21" value="Management team verifies" style="rounded=1;whiteSpace=wrap;html=1;" vertex="1" parent="eWNiFB_0ZMw8dlfla2pj-143">
          <mxGeometry x="175" y="500" width="120" height="60" as="geometry" />
        </mxCell>
        <mxCell id="eWNiFB_0ZMw8dlfla2pj-22" style="edgeStyle=orthogonalEdgeStyle;rounded=0;orthogonalLoop=1;jettySize=auto;html=1;" edge="1" parent="eWNiFB_0ZMw8dlfla2pj-143" source="eWNiFB_0ZMw8dlfla2pj-20" target="eWNiFB_0ZMw8dlfla2pj-21">
          <mxGeometry relative="1" as="geometry" />
        </mxCell>
        <mxCell id="eWNiFB_0ZMw8dlfla2pj-23" value="Yes" style="edgeLabel;html=1;align=center;verticalAlign=middle;resizable=0;points=[];" vertex="1" connectable="0" parent="eWNiFB_0ZMw8dlfla2pj-22">
          <mxGeometry x="-0.0889" y="1" relative="1" as="geometry">
            <mxPoint as="offset" />
          </mxGeometry>
        </mxCell>
        <mxCell id="eWNiFB_0ZMw8dlfla2pj-144" value="Req 2" style="group;labelPosition=center;verticalLabelPosition=top;align=center;verticalAlign=bottom;" vertex="1" connectable="0" parent="WIyWlLk6GJQsqaUBKTNV-1">
          <mxGeometry x="870" y="70" width="830" height="230" as="geometry" />
        </mxCell>
        <mxCell id="eWNiFB_0ZMw8dlfla2pj-27" value="Search for an item" style="rounded=1;whiteSpace=wrap;html=1;" vertex="1" parent="eWNiFB_0ZMw8dlfla2pj-144">
          <mxGeometry x="190" y="20" width="120" height="60" as="geometry" />
        </mxCell>
        <mxCell id="eWNiFB_0ZMw8dlfla2pj-29" style="edgeStyle=orthogonalEdgeStyle;rounded=0;orthogonalLoop=1;jettySize=auto;html=1;" edge="1" parent="eWNiFB_0ZMw8dlfla2pj-144" source="eWNiFB_0ZMw8dlfla2pj-28" target="eWNiFB_0ZMw8dlfla2pj-27">
          <mxGeometry relative="1" as="geometry" />
        </mxCell>
        <mxCell id="eWNiFB_0ZMw8dlfla2pj-28" value="Login" style="rounded=1;whiteSpace=wrap;html=1;" vertex="1" parent="eWNiFB_0ZMw8dlfla2pj-144">
          <mxGeometry y="20" width="120" height="60" as="geometry" />
        </mxCell>
        <mxCell id="eWNiFB_0ZMw8dlfla2pj-31" value="Is it available ?" style="rhombus;whiteSpace=wrap;html=1;rounded=1;glass=0;strokeWidth=1;shadow=0;" vertex="1" parent="eWNiFB_0ZMw8dlfla2pj-144">
          <mxGeometry x="380" width="100" height="100" as="geometry" />
        </mxCell>
        <mxCell id="eWNiFB_0ZMw8dlfla2pj-30" style="edgeStyle=orthogonalEdgeStyle;rounded=0;orthogonalLoop=1;jettySize=auto;html=1;entryX=0;entryY=0.5;entryDx=0;entryDy=0;" edge="1" parent="eWNiFB_0ZMw8dlfla2pj-144" source="eWNiFB_0ZMw8dlfla2pj-27" target="eWNiFB_0ZMw8dlfla2pj-31">
          <mxGeometry relative="1" as="geometry">
            <mxPoint x="390" y="50" as="targetPoint" />
          </mxGeometry>
        </mxCell>
        <mxCell id="eWNiFB_0ZMw8dlfla2pj-41" value="Notify user that it&#39;s not available" style="rounded=1;whiteSpace=wrap;html=1;" vertex="1" parent="eWNiFB_0ZMw8dlfla2pj-144">
          <mxGeometry x="370" y="170" width="120" height="60" as="geometry" />
        </mxCell>
        <mxCell id="eWNiFB_0ZMw8dlfla2pj-40" style="edgeStyle=orthogonalEdgeStyle;rounded=0;orthogonalLoop=1;jettySize=auto;html=1;entryX=0.5;entryY=0;entryDx=0;entryDy=0;" edge="1" parent="eWNiFB_0ZMw8dlfla2pj-144" source="eWNiFB_0ZMw8dlfla2pj-31" target="eWNiFB_0ZMw8dlfla2pj-41">
          <mxGeometry relative="1" as="geometry">
            <mxPoint x="430.00000000000045" y="140" as="targetPoint" />
          </mxGeometry>
        </mxCell>
        <mxCell id="eWNiFB_0ZMw8dlfla2pj-42" value="No" style="edgeLabel;html=1;align=center;verticalAlign=middle;resizable=0;points=[];" vertex="1" connectable="0" parent="eWNiFB_0ZMw8dlfla2pj-40">
          <mxGeometry x="-0.1211" y="3" relative="1" as="geometry">
            <mxPoint y="-1" as="offset" />
          </mxGeometry>
        </mxCell>
        <mxCell id="eWNiFB_0ZMw8dlfla2pj-57" value="Does user have borrowing privileges" style="rhombus;whiteSpace=wrap;html=1;rounded=1;glass=0;strokeWidth=1;shadow=0;" vertex="1" parent="eWNiFB_0ZMw8dlfla2pj-144">
          <mxGeometry x="570" y="10" width="80" height="80" as="geometry" />
        </mxCell>
        <mxCell id="eWNiFB_0ZMw8dlfla2pj-58" value="" style="edgeStyle=orthogonalEdgeStyle;rounded=0;orthogonalLoop=1;jettySize=auto;html=1;" edge="1" parent="eWNiFB_0ZMw8dlfla2pj-144" source="eWNiFB_0ZMw8dlfla2pj-31" target="eWNiFB_0ZMw8dlfla2pj-57">
          <mxGeometry relative="1" as="geometry" />
        </mxCell>
        <mxCell id="eWNiFB_0ZMw8dlfla2pj-69" value="Yes" style="edgeLabel;html=1;align=center;verticalAlign=middle;resizable=0;points=[];" vertex="1" connectable="0" parent="eWNiFB_0ZMw8dlfla2pj-58">
          <mxGeometry x="-0.3259" y="-1" relative="1" as="geometry">
            <mxPoint as="offset" />
          </mxGeometry>
        </mxCell>
        <mxCell id="eWNiFB_0ZMw8dlfla2pj-60" value="Issue item" style="whiteSpace=wrap;html=1;rounded=1;glass=0;strokeWidth=1;shadow=0;" vertex="1" parent="eWNiFB_0ZMw8dlfla2pj-144">
          <mxGeometry x="710" y="20" width="120" height="60" as="geometry" />
        </mxCell>
        <mxCell id="eWNiFB_0ZMw8dlfla2pj-61" value="" style="edgeStyle=orthogonalEdgeStyle;rounded=0;orthogonalLoop=1;jettySize=auto;html=1;" edge="1" parent="eWNiFB_0ZMw8dlfla2pj-144" source="eWNiFB_0ZMw8dlfla2pj-57" target="eWNiFB_0ZMw8dlfla2pj-60">
          <mxGeometry relative="1" as="geometry" />
        </mxCell>
        <mxCell id="eWNiFB_0ZMw8dlfla2pj-71" value="Yes" style="edgeLabel;html=1;align=center;verticalAlign=middle;resizable=0;points=[];" vertex="1" connectable="0" parent="eWNiFB_0ZMw8dlfla2pj-61">
          <mxGeometry x="-0.2111" y="-1" relative="1" as="geometry">
            <mxPoint as="offset" />
          </mxGeometry>
        </mxCell>
        <mxCell id="eWNiFB_0ZMw8dlfla2pj-72" value="Notify user that they have lost their borrowing privilege" style="whiteSpace=wrap;html=1;rounded=1;glass=0;strokeWidth=1;shadow=0;" vertex="1" parent="eWNiFB_0ZMw8dlfla2pj-144">
          <mxGeometry x="550" y="170" width="120" height="60" as="geometry" />
        </mxCell>
        <mxCell id="eWNiFB_0ZMw8dlfla2pj-73" value="" style="edgeStyle=orthogonalEdgeStyle;rounded=0;orthogonalLoop=1;jettySize=auto;html=1;" edge="1" parent="eWNiFB_0ZMw8dlfla2pj-144" source="eWNiFB_0ZMw8dlfla2pj-57" target="eWNiFB_0ZMw8dlfla2pj-72">
          <mxGeometry relative="1" as="geometry" />
        </mxCell>
        <mxCell id="eWNiFB_0ZMw8dlfla2pj-146" value="Req 5" style="group;labelPosition=center;verticalLabelPosition=top;align=center;verticalAlign=bottom;" vertex="1" connectable="0" parent="WIyWlLk6GJQsqaUBKTNV-1">
          <mxGeometry x="1930" y="90" width="320" height="160" as="geometry" />
        </mxCell>
        <mxCell id="eWNiFB_0ZMw8dlfla2pj-93" value="Login" style="rounded=1;whiteSpace=wrap;html=1;" vertex="1" parent="eWNiFB_0ZMw8dlfla2pj-146">
          <mxGeometry width="120" height="60" as="geometry" />
        </mxCell>
        <mxCell id="eWNiFB_0ZMw8dlfla2pj-94" value="Search for a book" style="whiteSpace=wrap;html=1;rounded=1;" vertex="1" parent="eWNiFB_0ZMw8dlfla2pj-146">
          <mxGeometry x="200" width="120" height="60" as="geometry" />
        </mxCell>
        <mxCell id="eWNiFB_0ZMw8dlfla2pj-95" value="" style="edgeStyle=orthogonalEdgeStyle;rounded=0;orthogonalLoop=1;jettySize=auto;html=1;" edge="1" parent="eWNiFB_0ZMw8dlfla2pj-146" source="eWNiFB_0ZMw8dlfla2pj-93" target="eWNiFB_0ZMw8dlfla2pj-94">
          <mxGeometry relative="1" as="geometry" />
        </mxCell>
        <mxCell id="eWNiFB_0ZMw8dlfla2pj-96" value="See recommendations" style="whiteSpace=wrap;html=1;rounded=1;" vertex="1" parent="eWNiFB_0ZMw8dlfla2pj-146">
          <mxGeometry x="200" y="100" width="120" height="60" as="geometry" />
        </mxCell>
        <mxCell id="eWNiFB_0ZMw8dlfla2pj-97" value="" style="edgeStyle=orthogonalEdgeStyle;rounded=0;orthogonalLoop=1;jettySize=auto;html=1;" edge="1" parent="eWNiFB_0ZMw8dlfla2pj-146" source="eWNiFB_0ZMw8dlfla2pj-94" target="eWNiFB_0ZMw8dlfla2pj-96">
          <mxGeometry relative="1" as="geometry" />
        </mxCell>
        <mxCell id="eWNiFB_0ZMw8dlfla2pj-147" value="Req 3" style="group;labelPosition=center;verticalLabelPosition=top;align=center;verticalAlign=bottom;" vertex="1" connectable="0" parent="WIyWlLk6GJQsqaUBKTNV-1">
          <mxGeometry x="730" y="340" width="346" height="355" as="geometry" />
        </mxCell>
        <mxCell id="eWNiFB_0ZMw8dlfla2pj-53" value="Login" style="rounded=1;whiteSpace=wrap;html=1;" vertex="1" parent="eWNiFB_0ZMw8dlfla2pj-147">
          <mxGeometry y="5" width="120" height="60" as="geometry" />
        </mxCell>
        <mxCell id="eWNiFB_0ZMw8dlfla2pj-67" value="Notify user" style="whiteSpace=wrap;html=1;rounded=1;" vertex="1" parent="eWNiFB_0ZMw8dlfla2pj-147">
          <mxGeometry x="193" y="295" width="120" height="60" as="geometry" />
        </mxCell>
        <mxCell id="eWNiFB_0ZMw8dlfla2pj-68" value="Is an item overdue or due date less than 24 hours?" style="rhombus;whiteSpace=wrap;html=1;rounded=1;glass=0;strokeWidth=1;shadow=0;" vertex="1" parent="eWNiFB_0ZMw8dlfla2pj-147">
          <mxGeometry x="203" y="135" width="100" height="100" as="geometry" />
        </mxCell>
        <mxCell id="eWNiFB_0ZMw8dlfla2pj-52" style="edgeStyle=orthogonalEdgeStyle;rounded=0;orthogonalLoop=1;jettySize=auto;html=1;entryX=0;entryY=0.5;entryDx=0;entryDy=0;" edge="1" parent="eWNiFB_0ZMw8dlfla2pj-147" source="eWNiFB_0ZMw8dlfla2pj-53" target="eWNiFB_0ZMw8dlfla2pj-68">
          <mxGeometry relative="1" as="geometry">
            <mxPoint x="190" y="185" as="targetPoint" />
            <Array as="points">
              <mxPoint x="60" y="185" />
            </Array>
          </mxGeometry>
        </mxCell>
        <mxCell id="eWNiFB_0ZMw8dlfla2pj-65" value="" style="edgeStyle=orthogonalEdgeStyle;rounded=0;orthogonalLoop=1;jettySize=auto;html=1;exitX=0.5;exitY=1;exitDx=0;exitDy=0;" edge="1" parent="eWNiFB_0ZMw8dlfla2pj-147" source="eWNiFB_0ZMw8dlfla2pj-68" target="eWNiFB_0ZMw8dlfla2pj-67">
          <mxGeometry relative="1" as="geometry">
            <mxPoint x="253" y="215" as="sourcePoint" />
          </mxGeometry>
        </mxCell>
        <mxCell id="eWNiFB_0ZMw8dlfla2pj-66" value="Yes" style="edgeLabel;html=1;align=center;verticalAlign=middle;resizable=0;points=[];" vertex="1" connectable="0" parent="eWNiFB_0ZMw8dlfla2pj-65">
          <mxGeometry x="-0.1889" y="2" relative="1" as="geometry">
            <mxPoint as="offset" />
          </mxGeometry>
        </mxCell>
        <mxCell id="eWNiFB_0ZMw8dlfla2pj-76" value="View currently rented books and their due dates" style="whiteSpace=wrap;html=1;rounded=1;" vertex="1" parent="eWNiFB_0ZMw8dlfla2pj-147">
          <mxGeometry x="203" width="143" height="70" as="geometry" />
        </mxCell>
        <mxCell id="eWNiFB_0ZMw8dlfla2pj-77" value="" style="edgeStyle=orthogonalEdgeStyle;rounded=0;orthogonalLoop=1;jettySize=auto;html=1;" edge="1" parent="eWNiFB_0ZMw8dlfla2pj-147" source="eWNiFB_0ZMw8dlfla2pj-53" target="eWNiFB_0ZMw8dlfla2pj-76">
          <mxGeometry relative="1" as="geometry" />
        </mxCell>
        <mxCell id="eWNiFB_0ZMw8dlfla2pj-148" value="Req 4" style="group;labelPosition=center;verticalLabelPosition=top;align=center;verticalAlign=bottom;" vertex="1" connectable="0" parent="WIyWlLk6GJQsqaUBKTNV-1">
          <mxGeometry x="1270" y="440" width="510" height="275" as="geometry" />
        </mxCell>
        <mxCell id="eWNiFB_0ZMw8dlfla2pj-78" value="Login" style="rounded=1;whiteSpace=wrap;html=1;" vertex="1" parent="eWNiFB_0ZMw8dlfla2pj-148">
          <mxGeometry y="40" width="120" height="60" as="geometry" />
        </mxCell>
        <mxCell id="eWNiFB_0ZMw8dlfla2pj-82" value="Read NY&amp;nbsp; Times magazine" style="whiteSpace=wrap;html=1;rounded=1;" vertex="1" parent="eWNiFB_0ZMw8dlfla2pj-148">
          <mxGeometry x="190" y="215" width="120" height="60" as="geometry" />
        </mxCell>
        <mxCell id="eWNiFB_0ZMw8dlfla2pj-90" style="edgeStyle=orthogonalEdgeStyle;rounded=0;orthogonalLoop=1;jettySize=auto;html=1;entryX=1;entryY=0.5;entryDx=0;entryDy=0;" edge="1" parent="eWNiFB_0ZMw8dlfla2pj-148" source="eWNiFB_0ZMw8dlfla2pj-84" target="eWNiFB_0ZMw8dlfla2pj-82">
          <mxGeometry relative="1" as="geometry">
            <Array as="points">
              <mxPoint x="450" y="245" />
            </Array>
          </mxGeometry>
        </mxCell>
        <mxCell id="eWNiFB_0ZMw8dlfla2pj-84" value="Subscribe to NY Times magazine" style="whiteSpace=wrap;html=1;rounded=1;" vertex="1" parent="eWNiFB_0ZMw8dlfla2pj-148">
          <mxGeometry x="390" y="40" width="120" height="60" as="geometry" />
        </mxCell>
        <mxCell id="eWNiFB_0ZMw8dlfla2pj-86" style="edgeStyle=orthogonalEdgeStyle;rounded=0;orthogonalLoop=1;jettySize=auto;html=1;entryX=0;entryY=0.5;entryDx=0;entryDy=0;" edge="1" parent="eWNiFB_0ZMw8dlfla2pj-148" source="eWNiFB_0ZMw8dlfla2pj-85" target="eWNiFB_0ZMw8dlfla2pj-84">
          <mxGeometry relative="1" as="geometry" />
        </mxCell>
        <mxCell id="eWNiFB_0ZMw8dlfla2pj-87" value="No" style="edgeLabel;html=1;align=center;verticalAlign=middle;resizable=0;points=[];" vertex="1" connectable="0" parent="eWNiFB_0ZMw8dlfla2pj-86">
          <mxGeometry x="-0.135" y="-2" relative="1" as="geometry">
            <mxPoint as="offset" />
          </mxGeometry>
        </mxCell>
        <mxCell id="eWNiFB_0ZMw8dlfla2pj-85" value="Is subscribed to NY Times ?" style="rhombus;whiteSpace=wrap;html=1;rounded=1;glass=0;strokeWidth=1;shadow=0;" vertex="1" parent="eWNiFB_0ZMw8dlfla2pj-148">
          <mxGeometry x="180" width="140" height="140" as="geometry" />
        </mxCell>
        <mxCell id="eWNiFB_0ZMw8dlfla2pj-81" value="" style="edgeStyle=orthogonalEdgeStyle;rounded=0;orthogonalLoop=1;jettySize=auto;html=1;entryX=0;entryY=0.5;entryDx=0;entryDy=0;" edge="1" parent="eWNiFB_0ZMw8dlfla2pj-148" source="eWNiFB_0ZMw8dlfla2pj-78" target="eWNiFB_0ZMw8dlfla2pj-85">
          <mxGeometry relative="1" as="geometry">
            <mxPoint x="200" y="70" as="targetPoint" />
          </mxGeometry>
        </mxCell>
        <mxCell id="eWNiFB_0ZMw8dlfla2pj-83" value="" style="edgeStyle=orthogonalEdgeStyle;rounded=0;orthogonalLoop=1;jettySize=auto;html=1;exitX=0.5;exitY=1;exitDx=0;exitDy=0;" edge="1" parent="eWNiFB_0ZMw8dlfla2pj-148" source="eWNiFB_0ZMw8dlfla2pj-85" target="eWNiFB_0ZMw8dlfla2pj-82">
          <mxGeometry relative="1" as="geometry">
            <mxPoint x="260" y="100" as="sourcePoint" />
          </mxGeometry>
        </mxCell>
        <mxCell id="eWNiFB_0ZMw8dlfla2pj-88" value="Yes" style="edgeLabel;html=1;align=center;verticalAlign=middle;resizable=0;points=[];" vertex="1" connectable="0" parent="eWNiFB_0ZMw8dlfla2pj-83">
          <mxGeometry x="-0.2199" relative="1" as="geometry">
            <mxPoint as="offset" />
          </mxGeometry>
        </mxCell>
        <mxCell id="eWNiFB_0ZMw8dlfla2pj-91" value="View NY Times website" style="rounded=1;whiteSpace=wrap;html=1;" vertex="1" parent="eWNiFB_0ZMw8dlfla2pj-148">
          <mxGeometry y="215" width="120" height="60" as="geometry" />
        </mxCell>
        <mxCell id="eWNiFB_0ZMw8dlfla2pj-92" style="edgeStyle=orthogonalEdgeStyle;rounded=0;orthogonalLoop=1;jettySize=auto;html=1;" edge="1" parent="eWNiFB_0ZMw8dlfla2pj-148" source="eWNiFB_0ZMw8dlfla2pj-78" target="eWNiFB_0ZMw8dlfla2pj-91">
          <mxGeometry relative="1" as="geometry" />
        </mxCell>
        <mxCell id="eWNiFB_0ZMw8dlfla2pj-149" value="Req 6" style="group;labelPosition=center;verticalLabelPosition=top;align=center;verticalAlign=bottom;" vertex="1" connectable="0" parent="WIyWlLk6GJQsqaUBKTNV-1">
          <mxGeometry x="1920" y="380" width="530" height="320" as="geometry" />
        </mxCell>
        <mxCell id="eWNiFB_0ZMw8dlfla2pj-98" value="Faculty Login" style="rounded=1;whiteSpace=wrap;html=1;" vertex="1" parent="eWNiFB_0ZMw8dlfla2pj-149">
          <mxGeometry x="210" y="120" width="120" height="60" as="geometry" />
        </mxCell>
        <mxCell id="eWNiFB_0ZMw8dlfla2pj-99" value="View courses they are currently teaching" style="whiteSpace=wrap;html=1;rounded=1;" vertex="1" parent="eWNiFB_0ZMw8dlfla2pj-149">
          <mxGeometry x="410" y="120" width="120" height="60" as="geometry" />
        </mxCell>
        <mxCell id="eWNiFB_0ZMw8dlfla2pj-100" value="" style="edgeStyle=orthogonalEdgeStyle;rounded=0;orthogonalLoop=1;jettySize=auto;html=1;" edge="1" parent="eWNiFB_0ZMw8dlfla2pj-149" source="eWNiFB_0ZMw8dlfla2pj-98" target="eWNiFB_0ZMw8dlfla2pj-99">
          <mxGeometry relative="1" as="geometry" />
        </mxCell>
        <mxCell id="eWNiFB_0ZMw8dlfla2pj-101" value="Show textbook usage history" style="whiteSpace=wrap;html=1;rounded=1;" vertex="1" parent="eWNiFB_0ZMw8dlfla2pj-149">
          <mxGeometry x="210" y="260" width="120" height="60" as="geometry" />
        </mxCell>
        <mxCell id="eWNiFB_0ZMw8dlfla2pj-102" value="" style="edgeStyle=orthogonalEdgeStyle;rounded=0;orthogonalLoop=1;jettySize=auto;html=1;" edge="1" parent="eWNiFB_0ZMw8dlfla2pj-149" source="eWNiFB_0ZMw8dlfla2pj-98" target="eWNiFB_0ZMw8dlfla2pj-101">
          <mxGeometry relative="1" as="geometry" />
        </mxCell>
        <mxCell id="eWNiFB_0ZMw8dlfla2pj-103" value="Notify user of a new editioin" style="rounded=1;whiteSpace=wrap;html=1;" vertex="1" parent="eWNiFB_0ZMw8dlfla2pj-149">
          <mxGeometry x="210" width="120" height="60" as="geometry" />
        </mxCell>
        <mxCell id="eWNiFB_0ZMw8dlfla2pj-105" style="edgeStyle=orthogonalEdgeStyle;rounded=0;orthogonalLoop=1;jettySize=auto;html=1;entryX=0.5;entryY=1;entryDx=0;entryDy=0;" edge="1" parent="eWNiFB_0ZMw8dlfla2pj-149" source="eWNiFB_0ZMw8dlfla2pj-98" target="eWNiFB_0ZMw8dlfla2pj-103">
          <mxGeometry relative="1" as="geometry" />
        </mxCell>
        <mxCell id="eWNiFB_0ZMw8dlfla2pj-106" value="Consult with management for procuring a new textbook" style="rounded=1;whiteSpace=wrap;html=1;" vertex="1" parent="eWNiFB_0ZMw8dlfla2pj-149">
          <mxGeometry y="108" width="168" height="84" as="geometry" />
        </mxCell>
        <mxCell id="eWNiFB_0ZMw8dlfla2pj-107" style="edgeStyle=orthogonalEdgeStyle;rounded=0;orthogonalLoop=1;jettySize=auto;html=1;" edge="1" parent="eWNiFB_0ZMw8dlfla2pj-149" source="eWNiFB_0ZMw8dlfla2pj-98" target="eWNiFB_0ZMw8dlfla2pj-106">
          <mxGeometry relative="1" as="geometry" />
        </mxCell>
        <mxCell id="eWNiFB_0ZMw8dlfla2pj-150" value="Req 10" style="group;labelPosition=center;verticalLabelPosition=top;align=center;verticalAlign=bottom;" vertex="1" connectable="0" parent="WIyWlLk6GJQsqaUBKTNV-1">
          <mxGeometry x="680" y="830" width="520" height="60" as="geometry" />
        </mxCell>
        <mxCell id="eWNiFB_0ZMw8dlfla2pj-123" value="Login" style="rounded=1;whiteSpace=wrap;html=1;" vertex="1" parent="eWNiFB_0ZMw8dlfla2pj-150">
          <mxGeometry width="120" height="60" as="geometry" />
        </mxCell>
        <mxCell id="eWNiFB_0ZMw8dlfla2pj-125" value="View discount offers" style="whiteSpace=wrap;html=1;rounded=1;" vertex="1" parent="eWNiFB_0ZMw8dlfla2pj-150">
          <mxGeometry x="200" width="120" height="60" as="geometry" />
        </mxCell>
        <mxCell id="eWNiFB_0ZMw8dlfla2pj-126" value="" style="edgeStyle=orthogonalEdgeStyle;rounded=0;orthogonalLoop=1;jettySize=auto;html=1;" edge="1" parent="eWNiFB_0ZMw8dlfla2pj-150" source="eWNiFB_0ZMw8dlfla2pj-123" target="eWNiFB_0ZMw8dlfla2pj-125">
          <mxGeometry relative="1" as="geometry" />
        </mxCell>
        <mxCell id="eWNiFB_0ZMw8dlfla2pj-127" value="Purchase a discounted item" style="whiteSpace=wrap;html=1;rounded=1;" vertex="1" parent="eWNiFB_0ZMw8dlfla2pj-150">
          <mxGeometry x="400" width="120" height="60" as="geometry" />
        </mxCell>
        <mxCell id="eWNiFB_0ZMw8dlfla2pj-128" value="" style="edgeStyle=orthogonalEdgeStyle;rounded=0;orthogonalLoop=1;jettySize=auto;html=1;" edge="1" parent="eWNiFB_0ZMw8dlfla2pj-150" source="eWNiFB_0ZMw8dlfla2pj-125" target="eWNiFB_0ZMw8dlfla2pj-127">
          <mxGeometry relative="1" as="geometry" />
        </mxCell>
        <mxCell id="eWNiFB_0ZMw8dlfla2pj-151" value="Req 7" style="group;labelPosition=center;verticalLabelPosition=top;align=center;verticalAlign=bottom;" vertex="1" connectable="0" parent="WIyWlLk6GJQsqaUBKTNV-1">
          <mxGeometry x="2050" y="810" width="320" height="270" as="geometry" />
        </mxCell>
        <mxCell id="eWNiFB_0ZMw8dlfla2pj-108" value="Manager Login" style="rounded=1;whiteSpace=wrap;html=1;" vertex="1" parent="eWNiFB_0ZMw8dlfla2pj-151">
          <mxGeometry y="100" width="120" height="60" as="geometry" />
        </mxCell>
        <mxCell id="eWNiFB_0ZMw8dlfla2pj-109" value="Add item" style="rounded=1;whiteSpace=wrap;html=1;" vertex="1" parent="eWNiFB_0ZMw8dlfla2pj-151">
          <mxGeometry x="200" width="120" height="60" as="geometry" />
        </mxCell>
        <mxCell id="eWNiFB_0ZMw8dlfla2pj-112" style="edgeStyle=orthogonalEdgeStyle;rounded=0;orthogonalLoop=1;jettySize=auto;html=1;entryX=0;entryY=0.5;entryDx=0;entryDy=0;" edge="1" parent="eWNiFB_0ZMw8dlfla2pj-151" source="eWNiFB_0ZMw8dlfla2pj-108" target="eWNiFB_0ZMw8dlfla2pj-109">
          <mxGeometry relative="1" as="geometry" />
        </mxCell>
        <mxCell id="eWNiFB_0ZMw8dlfla2pj-110" value="Enable Item" style="rounded=1;whiteSpace=wrap;html=1;" vertex="1" parent="eWNiFB_0ZMw8dlfla2pj-151">
          <mxGeometry x="200" y="100" width="120" height="60" as="geometry" />
        </mxCell>
        <mxCell id="eWNiFB_0ZMw8dlfla2pj-113" style="edgeStyle=orthogonalEdgeStyle;rounded=0;orthogonalLoop=1;jettySize=auto;html=1;entryX=0;entryY=0.5;entryDx=0;entryDy=0;" edge="1" parent="eWNiFB_0ZMw8dlfla2pj-151" source="eWNiFB_0ZMw8dlfla2pj-108" target="eWNiFB_0ZMw8dlfla2pj-110">
          <mxGeometry relative="1" as="geometry" />
        </mxCell>
        <mxCell id="eWNiFB_0ZMw8dlfla2pj-111" value="Disable Item" style="rounded=1;whiteSpace=wrap;html=1;" vertex="1" parent="eWNiFB_0ZMw8dlfla2pj-151">
          <mxGeometry x="200" y="210" width="120" height="60" as="geometry" />
        </mxCell>
        <mxCell id="eWNiFB_0ZMw8dlfla2pj-114" style="edgeStyle=orthogonalEdgeStyle;rounded=0;orthogonalLoop=1;jettySize=auto;html=1;entryX=0;entryY=0.5;entryDx=0;entryDy=0;" edge="1" parent="eWNiFB_0ZMw8dlfla2pj-151" source="eWNiFB_0ZMw8dlfla2pj-108" target="eWNiFB_0ZMw8dlfla2pj-111">
          <mxGeometry relative="1" as="geometry" />
        </mxCell>
        <mxCell id="eWNiFB_0ZMw8dlfla2pj-152" value="Req 9" style="group;labelPosition=center;verticalLabelPosition=top;align=center;verticalAlign=bottom;" vertex="1" connectable="0" parent="WIyWlLk6GJQsqaUBKTNV-1">
          <mxGeometry x="1280" y="1005" width="660" height="295" as="geometry" />
        </mxCell>
        <mxCell id="eWNiFB_0ZMw8dlfla2pj-129" value="Login" style="rounded=1;whiteSpace=wrap;html=1;" vertex="1" parent="eWNiFB_0ZMw8dlfla2pj-152">
          <mxGeometry y="55" width="120" height="60" as="geometry" />
        </mxCell>
        <mxCell id="eWNiFB_0ZMw8dlfla2pj-130" value="Request a new book" style="whiteSpace=wrap;html=1;rounded=1;" vertex="1" parent="eWNiFB_0ZMw8dlfla2pj-152">
          <mxGeometry x="164" y="55" width="120" height="60" as="geometry" />
        </mxCell>
        <mxCell id="eWNiFB_0ZMw8dlfla2pj-131" value="" style="edgeStyle=orthogonalEdgeStyle;rounded=0;orthogonalLoop=1;jettySize=auto;html=1;" edge="1" parent="eWNiFB_0ZMw8dlfla2pj-152" source="eWNiFB_0ZMw8dlfla2pj-129" target="eWNiFB_0ZMw8dlfla2pj-130">
          <mxGeometry relative="1" as="geometry" />
        </mxCell>
        <mxCell id="eWNiFB_0ZMw8dlfla2pj-132" value="Is request a textbook for course teaching ?" style="rhombus;whiteSpace=wrap;html=1;rounded=1;" vertex="1" parent="eWNiFB_0ZMw8dlfla2pj-152">
          <mxGeometry x="330" width="170" height="170" as="geometry" />
        </mxCell>
        <mxCell id="eWNiFB_0ZMw8dlfla2pj-133" value="" style="edgeStyle=orthogonalEdgeStyle;rounded=0;orthogonalLoop=1;jettySize=auto;html=1;" edge="1" parent="eWNiFB_0ZMw8dlfla2pj-152" source="eWNiFB_0ZMw8dlfla2pj-130" target="eWNiFB_0ZMw8dlfla2pj-132">
          <mxGeometry relative="1" as="geometry" />
        </mxCell>
        <mxCell id="eWNiFB_0ZMw8dlfla2pj-134" value="Make it high priority" style="whiteSpace=wrap;html=1;rounded=1;" vertex="1" parent="eWNiFB_0ZMw8dlfla2pj-152">
          <mxGeometry x="355" y="235" width="120" height="60" as="geometry" />
        </mxCell>
        <mxCell id="eWNiFB_0ZMw8dlfla2pj-135" value="" style="edgeStyle=orthogonalEdgeStyle;rounded=0;orthogonalLoop=1;jettySize=auto;html=1;" edge="1" parent="eWNiFB_0ZMw8dlfla2pj-152" source="eWNiFB_0ZMw8dlfla2pj-132" target="eWNiFB_0ZMw8dlfla2pj-134">
          <mxGeometry relative="1" as="geometry" />
        </mxCell>
        <mxCell id="eWNiFB_0ZMw8dlfla2pj-137" value="Make it lower priority" style="whiteSpace=wrap;html=1;rounded=1;" vertex="1" parent="eWNiFB_0ZMw8dlfla2pj-152">
          <mxGeometry x="540" y="55" width="120" height="60" as="geometry" />
        </mxCell>
        <mxCell id="eWNiFB_0ZMw8dlfla2pj-138" value="" style="edgeStyle=orthogonalEdgeStyle;rounded=0;orthogonalLoop=1;jettySize=auto;html=1;" edge="1" parent="eWNiFB_0ZMw8dlfla2pj-152" source="eWNiFB_0ZMw8dlfla2pj-132" target="eWNiFB_0ZMw8dlfla2pj-137">
          <mxGeometry relative="1" as="geometry" />
        </mxCell>
        <mxCell id="eWNiFB_0ZMw8dlfla2pj-139" value="Notify the user of the request&#39;s priority" style="rounded=1;whiteSpace=wrap;html=1;" vertex="1" parent="eWNiFB_0ZMw8dlfla2pj-152">
          <mxGeometry x="540" y="235" width="120" height="60" as="geometry" />
        </mxCell>
        <mxCell id="eWNiFB_0ZMw8dlfla2pj-141" style="edgeStyle=orthogonalEdgeStyle;rounded=0;orthogonalLoop=1;jettySize=auto;html=1;entryX=0;entryY=0.5;entryDx=0;entryDy=0;" edge="1" parent="eWNiFB_0ZMw8dlfla2pj-152" source="eWNiFB_0ZMw8dlfla2pj-134" target="eWNiFB_0ZMw8dlfla2pj-139">
          <mxGeometry relative="1" as="geometry" />
        </mxCell>
        <mxCell id="eWNiFB_0ZMw8dlfla2pj-140" style="edgeStyle=orthogonalEdgeStyle;rounded=0;orthogonalLoop=1;jettySize=auto;html=1;" edge="1" parent="eWNiFB_0ZMw8dlfla2pj-152" source="eWNiFB_0ZMw8dlfla2pj-137" target="eWNiFB_0ZMw8dlfla2pj-139">
          <mxGeometry relative="1" as="geometry" />
        </mxCell>
        <mxCell id="eWNiFB_0ZMw8dlfla2pj-153" value="Req 8" style="group;labelPosition=center;verticalLabelPosition=top;align=center;verticalAlign=bottom;" vertex="1" connectable="0" parent="WIyWlLk6GJQsqaUBKTNV-1">
          <mxGeometry x="120" y="1160" width="530" height="140" as="geometry" />
        </mxCell>
        <mxCell id="eWNiFB_0ZMw8dlfla2pj-115" value="Student Login" style="rounded=1;whiteSpace=wrap;html=1;" vertex="1" parent="eWNiFB_0ZMw8dlfla2pj-153">
          <mxGeometry y="40" width="120" height="60" as="geometry" />
        </mxCell>
        <mxCell id="eWNiFB_0ZMw8dlfla2pj-116" value="View virtual copy of textbook related to course" style="rounded=1;whiteSpace=wrap;html=1;" vertex="1" parent="eWNiFB_0ZMw8dlfla2pj-153">
          <mxGeometry x="410" y="40" width="120" height="60" as="geometry" />
        </mxCell>
        <mxCell id="eWNiFB_0ZMw8dlfla2pj-120" style="edgeStyle=orthogonalEdgeStyle;rounded=0;orthogonalLoop=1;jettySize=auto;html=1;entryX=0;entryY=0.5;entryDx=0;entryDy=0;" edge="1" parent="eWNiFB_0ZMw8dlfla2pj-153" source="eWNiFB_0ZMw8dlfla2pj-118" target="eWNiFB_0ZMw8dlfla2pj-116">
          <mxGeometry relative="1" as="geometry" />
        </mxCell>
        <mxCell id="eWNiFB_0ZMw8dlfla2pj-121" value="Yes" style="edgeLabel;html=1;align=center;verticalAlign=middle;resizable=0;points=[];" vertex="1" connectable="0" parent="eWNiFB_0ZMw8dlfla2pj-120">
          <mxGeometry x="-0.2286" y="-6" relative="1" as="geometry">
            <mxPoint x="1" as="offset" />
          </mxGeometry>
        </mxCell>
        <mxCell id="eWNiFB_0ZMw8dlfla2pj-118" value="Is enrolled in course ?" style="rhombus;whiteSpace=wrap;html=1;rounded=1;" vertex="1" parent="eWNiFB_0ZMw8dlfla2pj-153">
          <mxGeometry x="195" width="140" height="140" as="geometry" />
        </mxCell>
        <mxCell id="eWNiFB_0ZMw8dlfla2pj-119" value="" style="edgeStyle=orthogonalEdgeStyle;rounded=0;orthogonalLoop=1;jettySize=auto;html=1;" edge="1" parent="eWNiFB_0ZMw8dlfla2pj-153" source="eWNiFB_0ZMw8dlfla2pj-115" target="eWNiFB_0ZMw8dlfla2pj-118">
          <mxGeometry relative="1" as="geometry" />
        </mxCell>
      </root>
    </mxGraphModel>
  </diagram>
</mxfile>
